<svg xmlns="http://www.w3.org/2000/svg" xmlns:xlink="http://www.w3.org/1999/xlink" width="500" zoomAndPan="magnify" viewBox="0 0 375 374.999991" height="500" preserveAspectRatio="xMidYMid meet" version="1.0"><defs><g/><clipPath id="44846c68c9"><path d="M 120.886719 101.058594 L 254.355469 101.058594 L 254.355469 164 L 120.886719 164 Z M 120.886719 101.058594 " clip-rule="nonzero"/></clipPath><clipPath id="3891822009"><path d="M 227 101.058594 L 246 101.058594 L 246 119 L 227 119 Z M 227 101.058594 " clip-rule="nonzero"/></clipPath><clipPath id="65fd5ae813"><path d="M 129 101.058594 L 148 101.058594 L 148 119 L 129 119 Z M 129 101.058594 " clip-rule="nonzero"/></clipPath><clipPath id="30ddbb32d6"><path d="M 156 122 L 243 122 L 243 201.558594 L 156 201.558594 Z M 156 122 " clip-rule="nonzero"/></clipPath></defs><g clip-path="url(#44846c68c9)"><path fill="#004b72" d="M 147.394531 129.707031 L 187.605469 101.09375 L 254.355469 148.636719 L 254.355469 163.339844 L 187.605469 115.878906 L 147.394531 144.488281 Z M 120.855469 148.636719 L 129.265625 142.628906 L 129.265625 157.386719 L 120.855469 163.339844 Z M 120.855469 148.636719 " fill-opacity="1" fill-rule="nonzero"/></g><g clip-path="url(#3891822009)"><path fill="#004b72" d="M 245.863281 110.082031 C 245.863281 105.164062 241.859375 101.09375 236.917969 101.09375 C 231.980469 101.09375 227.894531 105.164062 227.894531 110.082031 C 227.894531 115 231.980469 118.988281 236.917969 118.988281 C 241.859375 119.015625 245.863281 115.027344 245.863281 110.082031 Z M 245.863281 110.082031 " fill-opacity="1" fill-rule="nonzero"/></g><path fill="#004b72" d="M 147.632812 148.875 L 187.605469 126.59375 L 227.574219 148.875 L 187.605469 120.796875 Z M 147.632812 148.875 " fill-opacity="1" fill-rule="nonzero"/><path fill="#32cd99" d="M 176.84375 148.476562 L 186.511719 148.476562 L 186.511719 158.101562 L 176.84375 158.101562 Z M 176.84375 148.476562 " fill-opacity="1" fill-rule="nonzero"/><path fill="#32cd99" d="M 188.699219 148.476562 L 198.363281 148.476562 L 198.363281 158.101562 L 188.699219 158.101562 Z M 188.699219 148.476562 " fill-opacity="1" fill-rule="nonzero"/><path fill="#32cd99" d="M 176.84375 160.230469 L 186.511719 160.230469 L 186.511719 169.75 L 176.84375 169.75 Z M 176.84375 160.230469 " fill-opacity="1" fill-rule="nonzero"/><path fill="#32cd99" d="M 188.699219 160.230469 L 198.363281 160.230469 L 198.363281 169.75 L 188.699219 169.75 Z M 188.699219 160.230469 " fill-opacity="1" fill-rule="nonzero"/><g clip-path="url(#65fd5ae813)"><path fill="#32cd99" d="M 147.3125 110.082031 C 147.3125 105.164062 143.308594 101.09375 138.289062 101.09375 C 133.351562 101.09375 129.34375 105.164062 129.34375 110.082031 C 129.34375 115 133.351562 118.988281 138.289062 118.988281 C 143.308594 119.015625 147.3125 115.027344 147.3125 110.082031 Z M 147.3125 110.082031 " fill-opacity="1" fill-rule="nonzero"/></g><path fill="#32cd99" d="M 187.605469 189.480469 C 175.75 189.480469 164.910156 184.640625 157.058594 176.824219 C 149.210938 169.085938 144.351562 158.289062 144.351562 146.484375 C 144.351562 134.121094 144.351562 142.335938 144.351562 129.972656 L 144.351562 128.402344 C 144.351562 125.105469 141.679688 122.445312 138.371094 122.445312 L 138.289062 122.445312 C 134.980469 122.445312 132.253906 125.105469 132.253906 128.402344 L 132.253906 129.972656 C 132.253906 141.855469 132.253906 133.109375 132.253906 144.996094 L 132.253906 146.484375 C 132.253906 161.585938 138.53125 175.414062 148.515625 185.359375 C 150.25 187.085938 152.039062 188.65625 154.015625 190.117188 L 156.367188 190.597656 C 169.875 193.335938 184.960938 193.894531 197.992188 189.027344 C 199.804688 188.390625 201.996094 187.378906 204.105469 186.207031 C 198.980469 188.28125 193.425781 189.480469 187.605469 189.480469 Z M 187.605469 189.480469 " fill-opacity="1" fill-rule="nonzero"/><g clip-path="url(#30ddbb32d6)"><path fill="#004b72" d="M 211.3125 182.351562 C 211.3125 182.351562 195.375 199.558594 156.179688 191.738281 C 165.042969 197.90625 175.964844 201.523438 187.578125 201.523438 C 202.824219 201.523438 216.628906 195.355469 226.691406 185.332031 C 236.679688 175.386719 242.953125 161.558594 242.953125 146.457031 L 242.953125 144.96875 C 242.953125 133.082031 242.953125 141.832031 242.953125 129.945312 L 242.953125 128.375 C 242.953125 125.078125 240.203125 122.421875 236.972656 122.421875 L 236.8125 122.421875 C 233.5 122.421875 230.832031 125.078125 230.832031 128.375 L 230.832031 129.945312 C 230.832031 142.308594 230.832031 134.09375 230.832031 146.457031 C 230.832031 158.261719 225.972656 169.058594 218.121094 176.796875 C 216.039062 178.898438 213.742188 180.785156 211.3125 182.351562 Z M 211.3125 182.351562 " fill-opacity="1" fill-rule="nonzero"/></g><g fill="#000000" fill-opacity="1"><g transform="translate(120.875777, 244.762735)"><g><path d="M 17.421875 -6.9375 C 17.421875 -5.519531 17.0625 -4.257812 16.34375 -3.15625 C 15.625 -2.0625 14.585938 -1.207031 13.234375 -0.59375 C 11.878906 0.0078125 10.289062 0.3125 8.46875 0.3125 C 6.9375 0.3125 5.65625 0.207031 4.625 0 C 3.59375 -0.21875 2.519531 -0.59375 1.40625 -1.125 L 1.40625 -6.625 C 2.582031 -6.019531 3.804688 -5.546875 5.078125 -5.203125 C 6.347656 -4.867188 7.519531 -4.703125 8.59375 -4.703125 C 9.507812 -4.703125 10.179688 -4.859375 10.609375 -5.171875 C 11.035156 -5.492188 11.25 -5.90625 11.25 -6.40625 C 11.25 -6.71875 11.160156 -6.988281 10.984375 -7.21875 C 10.816406 -7.457031 10.539062 -7.695312 10.15625 -7.9375 C 9.78125 -8.1875 8.765625 -8.679688 7.109375 -9.421875 C 5.617188 -10.097656 4.5 -10.753906 3.75 -11.390625 C 3.007812 -12.023438 2.457031 -12.753906 2.09375 -13.578125 C 1.738281 -14.398438 1.5625 -15.375 1.5625 -16.5 C 1.5625 -18.601562 2.328125 -20.242188 3.859375 -21.421875 C 5.390625 -22.597656 7.5 -23.1875 10.1875 -23.1875 C 12.550781 -23.1875 14.960938 -22.640625 17.421875 -21.546875 L 15.53125 -16.78125 C 13.394531 -17.757812 11.550781 -18.25 10 -18.25 C 9.195312 -18.25 8.609375 -18.109375 8.234375 -17.828125 C 7.867188 -17.546875 7.6875 -17.195312 7.6875 -16.78125 C 7.6875 -16.332031 7.921875 -15.929688 8.390625 -15.578125 C 8.859375 -15.222656 10.117188 -14.578125 12.171875 -13.640625 C 14.140625 -12.753906 15.503906 -11.800781 16.265625 -10.78125 C 17.035156 -9.769531 17.421875 -8.488281 17.421875 -6.9375 Z M 17.421875 -6.9375 "/></g></g></g><g fill="#000000" fill-opacity="1"><g transform="translate(139.363833, 244.762735)"><g><path d="M 13.265625 0 L 13.265625 -9.671875 C 13.265625 -12.046875 12.5625 -13.234375 11.15625 -13.234375 C 10.15625 -13.234375 9.414062 -12.8125 8.9375 -11.96875 C 8.46875 -11.132812 8.234375 -9.738281 8.234375 -7.78125 L 8.234375 0 L 2.109375 0 L 2.109375 -24.34375 L 8.234375 -24.34375 L 8.234375 -20.875 C 8.234375 -19.3125 8.144531 -17.53125 7.96875 -15.53125 L 8.265625 -15.53125 C 8.847656 -16.445312 9.539062 -17.09375 10.34375 -17.46875 C 11.144531 -17.84375 12.078125 -18.03125 13.140625 -18.03125 C 15.117188 -18.03125 16.65625 -17.457031 17.75 -16.3125 C 18.851562 -15.175781 19.40625 -13.582031 19.40625 -11.53125 L 19.40625 0 Z M 13.265625 0 "/></g></g></g><g fill="#000000" fill-opacity="1"><g transform="translate(160.823741, 244.762735)"><g><path d="M 19.03125 -8.90625 C 19.03125 -6 18.25 -3.734375 16.6875 -2.109375 C 15.132812 -0.492188 12.957031 0.3125 10.15625 0.3125 C 7.457031 0.3125 5.3125 -0.515625 3.71875 -2.171875 C 2.132812 -3.828125 1.34375 -6.070312 1.34375 -8.90625 C 1.34375 -11.789062 2.117188 -14.03125 3.671875 -15.625 C 5.234375 -17.226562 7.425781 -18.03125 10.25 -18.03125 C 11.988281 -18.03125 13.523438 -17.660156 14.859375 -16.921875 C 16.191406 -16.179688 17.21875 -15.117188 17.9375 -13.734375 C 18.664062 -12.359375 19.03125 -10.75 19.03125 -8.90625 Z M 7.546875 -8.90625 C 7.546875 -7.375 7.75 -6.207031 8.15625 -5.40625 C 8.570312 -4.613281 9.257812 -4.21875 10.21875 -4.21875 C 11.164062 -4.21875 11.832031 -4.613281 12.21875 -5.40625 C 12.613281 -6.207031 12.8125 -7.375 12.8125 -8.90625 C 12.8125 -10.414062 12.613281 -11.554688 12.21875 -12.328125 C 11.820312 -13.097656 11.144531 -13.484375 10.1875 -13.484375 C 9.25 -13.484375 8.570312 -13.097656 8.15625 -12.328125 C 7.75 -11.566406 7.546875 -10.425781 7.546875 -8.90625 Z M 7.546875 -8.90625 "/></g></g></g><g fill="#000000" fill-opacity="1"><g transform="translate(181.235687, 244.762735)"><g><path d="M 12.75 0.3125 C 11.851562 0.3125 11.050781 0.164062 10.34375 -0.125 C 9.632812 -0.425781 8.929688 -0.960938 8.234375 -1.734375 L 7.9375 -1.734375 C 8.132812 -0.492188 8.234375 0.273438 8.234375 0.578125 L 8.234375 7.6875 L 2.109375 7.6875 L 2.109375 -17.71875 L 7.078125 -17.71875 L 7.9375 -15.46875 L 8.234375 -15.46875 C 9.367188 -17.175781 10.9375 -18.03125 12.9375 -18.03125 C 14.894531 -18.03125 16.429688 -17.21875 17.546875 -15.59375 C 18.660156 -13.96875 19.21875 -11.738281 19.21875 -8.90625 C 19.21875 -6.039062 18.632812 -3.785156 17.46875 -2.140625 C 16.3125 -0.503906 14.738281 0.3125 12.75 0.3125 Z M 10.703125 -13.234375 C 9.804688 -13.234375 9.175781 -12.910156 8.8125 -12.265625 C 8.457031 -11.628906 8.265625 -10.679688 8.234375 -9.421875 L 8.234375 -8.9375 C 8.234375 -7.40625 8.4375 -6.300781 8.84375 -5.625 C 9.25 -4.945312 9.890625 -4.609375 10.765625 -4.609375 C 11.546875 -4.609375 12.113281 -4.941406 12.46875 -5.609375 C 12.820312 -6.285156 13 -7.40625 13 -8.96875 C 13 -10.488281 12.820312 -11.578125 12.46875 -12.234375 C 12.113281 -12.898438 11.523438 -13.234375 10.703125 -13.234375 Z M 10.703125 -13.234375 "/></g></g></g><g fill="#000000" fill-opacity="1"><g transform="translate(201.835329, 244.762735)"><g/></g></g><g fill="#000000" fill-opacity="1"><g transform="translate(210.156518, 244.762735)"><g><path d="M 16.5 0 L 15.375 -4.28125 L 7.9375 -4.28125 L 6.78125 0 L 0 0 L 7.453125 -22.953125 L 15.703125 -22.953125 L 23.25 0 Z M 14.09375 -9.359375 L 13.109375 -13.109375 C 12.878906 -13.941406 12.597656 -15.019531 12.265625 -16.34375 C 11.941406 -17.664062 11.726562 -18.613281 11.625 -19.1875 C 11.53125 -18.65625 11.34375 -17.78125 11.0625 -16.5625 C 10.789062 -15.34375 10.179688 -12.941406 9.234375 -9.359375 Z M 14.09375 -9.359375 "/></g></g></g><g fill="#000000" fill-opacity="1"><g transform="translate(233.415187, 244.762735)"><g><path d="M 8.234375 0 L 2.109375 0 L 2.109375 -24.34375 L 8.234375 -24.34375 Z M 8.234375 0 "/></g></g></g><g fill="#000000" fill-opacity="1"><g transform="translate(243.76975, 244.762735)"><g><path d="M 8.234375 0 L 2.109375 0 L 2.109375 -24.34375 L 8.234375 -24.34375 Z M 8.234375 0 "/></g></g></g><g fill="#000000" fill-opacity="1"><g transform="translate(171.07546, 269.76376)"><g><path d="M 5.484375 0.171875 C 4.066406 0.171875 2.96875 -0.257812 2.1875 -1.125 C 1.414062 -2 1.03125 -3.234375 1.03125 -4.828125 C 1.03125 -6.472656 1.421875 -7.738281 2.203125 -8.625 C 2.992188 -9.519531 4.117188 -9.96875 5.578125 -9.96875 C 6.054688 -9.96875 6.53125 -9.914062 7 -9.8125 C 7.46875 -9.71875 7.835938 -9.601562 8.109375 -9.46875 L 7.640625 -8.203125 C 7.316406 -8.328125 6.960938 -8.429688 6.578125 -8.515625 C 6.191406 -8.609375 5.847656 -8.65625 5.546875 -8.65625 C 3.554688 -8.65625 2.5625 -7.382812 2.5625 -4.84375 C 2.5625 -3.644531 2.800781 -2.722656 3.28125 -2.078125 C 3.769531 -1.429688 4.492188 -1.109375 5.453125 -1.109375 C 6.265625 -1.109375 7.097656 -1.285156 7.953125 -1.640625 L 7.953125 -0.328125 C 7.304688 0.00390625 6.484375 0.171875 5.484375 0.171875 Z M 5.484375 0.171875 "/></g></g></g><g fill="#000000" fill-opacity="1"><g transform="translate(179.789011, 269.76376)"><g><path d="M 7.59375 0 L 7.296875 -1.390625 L 7.234375 -1.390625 C 6.742188 -0.773438 6.253906 -0.359375 5.765625 -0.140625 C 5.273438 0.0664062 4.671875 0.171875 3.953125 0.171875 C 2.984375 0.171875 2.222656 -0.078125 1.671875 -0.578125 C 1.117188 -1.078125 0.84375 -1.785156 0.84375 -2.703125 C 0.84375 -4.679688 2.421875 -5.71875 5.578125 -5.8125 L 7.25 -5.875 L 7.25 -6.484375 C 7.25 -7.242188 7.082031 -7.804688 6.75 -8.171875 C 6.414062 -8.546875 5.882812 -8.734375 5.15625 -8.734375 C 4.34375 -8.734375 3.421875 -8.484375 2.390625 -7.984375 L 1.9375 -9.109375 C 2.414062 -9.367188 2.941406 -9.570312 3.515625 -9.71875 C 4.097656 -9.875 4.675781 -9.953125 5.25 -9.953125 C 6.414062 -9.953125 7.28125 -9.691406 7.84375 -9.171875 C 8.40625 -8.648438 8.6875 -7.820312 8.6875 -6.6875 L 8.6875 0 Z M 4.25 -1.046875 C 5.164062 -1.046875 5.882812 -1.296875 6.40625 -1.796875 C 6.9375 -2.304688 7.203125 -3.019531 7.203125 -3.9375 L 7.203125 -4.8125 L 5.734375 -4.75 C 4.546875 -4.707031 3.691406 -4.523438 3.171875 -4.203125 C 2.648438 -3.878906 2.390625 -3.375 2.390625 -2.6875 C 2.390625 -2.15625 2.550781 -1.75 2.875 -1.46875 C 3.207031 -1.1875 3.664062 -1.046875 4.25 -1.046875 Z M 4.25 -1.046875 "/></g></g></g><g fill="#000000" fill-opacity="1"><g transform="translate(189.968226, 269.76376)"><g><path d="M 6.046875 -9.96875 C 6.472656 -9.96875 6.859375 -9.929688 7.203125 -9.859375 L 7 -8.484375 C 6.59375 -8.578125 6.238281 -8.625 5.9375 -8.625 C 5.144531 -8.625 4.46875 -8.300781 3.90625 -7.65625 C 3.34375 -7.007812 3.0625 -6.207031 3.0625 -5.25 L 3.0625 0 L 1.578125 0 L 1.578125 -9.796875 L 2.796875 -9.796875 L 2.96875 -7.984375 L 3.03125 -7.984375 C 3.394531 -8.617188 3.832031 -9.109375 4.34375 -9.453125 C 4.863281 -9.796875 5.429688 -9.96875 6.046875 -9.96875 Z M 6.046875 -9.96875 "/></g></g></g><g fill="#000000" fill-opacity="1"><g transform="translate(197.439532, 269.76376)"><g><path d="M 4.734375 -1.046875 C 4.992188 -1.046875 5.242188 -1.0625 5.484375 -1.09375 C 5.734375 -1.132812 5.929688 -1.175781 6.078125 -1.21875 L 6.078125 -0.09375 C 5.910156 -0.0078125 5.671875 0.0507812 5.359375 0.09375 C 5.046875 0.144531 4.765625 0.171875 4.515625 0.171875 C 2.617188 0.171875 1.671875 -0.820312 1.671875 -2.8125 L 1.671875 -8.640625 L 0.28125 -8.640625 L 0.28125 -9.359375 L 1.671875 -9.96875 L 2.3125 -12.0625 L 3.15625 -12.0625 L 3.15625 -9.796875 L 6 -9.796875 L 6 -8.640625 L 3.15625 -8.640625 L 3.15625 -2.875 C 3.15625 -2.289062 3.296875 -1.835938 3.578125 -1.515625 C 3.859375 -1.203125 4.242188 -1.046875 4.734375 -1.046875 Z M 4.734375 -1.046875 "/></g></g></g></svg>